<svg width="240" height="72" viewBox="0 0 240 72" fill="none" xmlns="http://www.w3.org/2000/svg" role="img" aria-labelledby="title desc">
  <title id="title">Chybank logo</title>
  <desc id="desc">A green shield bank mark with the Chybank wordmark.</desc>
  <rect width="240" height="72" rx="12" fill="#F8FBF6"/>
  <path d="M35.8 11.5L58 19.6V33.4C58 47 49.4 59 35.8 63.2C22.2 59 13.6 47 13.6 33.4V19.6L35.8 11.5Z" fill="#135D38"/>
  <path d="M24.6 33.1C24.6 26.7 29.6 21.8 36 21.8C40.3 21.8 43.9 23.9 45.9 27.2L41.2 30.2C40.1 28.3 38.3 27.2 36 27.2C32.7 27.2 30.2 29.7 30.2 33.1C30.2 36.5 32.7 39 36 39C38.3 39 40.1 37.9 41.3 36L45.9 39C43.9 42.3 40.3 44.4 36 44.4C29.6 44.4 24.6 39.5 24.6 33.1Z" fill="white"/>
  <path d="M34.2 48.7H50.1" stroke="#D7A928" stroke-width="4" stroke-linecap="round"/>
  <path d="M73.9 25.5C76.6 20.9 81.2 18.4 87 18.4C94.8 18.4 100.1 22.8 102 30.1H94.8C93.4 26.5 90.7 24.7 86.8 24.7C81.1 24.7 77.4 29 77.4 36C77.4 43 81.1 47.3 86.8 47.3C90.7 47.3 93.4 45.5 94.8 41.9H102C100.1 49.2 94.8 53.6 87 53.6C81.2 53.6 76.6 51.1 73.9 46.5V53H67V8.8H73.9V25.5Z" fill="#162018"/>
  <path d="M111.7 53H104.9V8.8H111.7V30.1C113.7 27.2 116.8 25.6 120.8 25.6C127.1 25.6 131.2 29.8 131.2 36.9V53H124.3V37.9C124.3 33.9 122.2 31.6 118.6 31.6C114.5 31.6 111.7 34.5 111.7 39V53Z" fill="#162018"/>
  <path d="M150.8 25.9H158.2L146.2 55.7C143.8 61.6 140.4 64.2 135.4 64.2H132.8V58.2H135.1C137.7 58.2 139.2 57.1 140.4 54.4L141 53L129.5 25.9H137L144.6 44.8L150.8 25.9Z" fill="#162018"/>
  <path d="M166.3 30.2C168.6 27.1 172 25.6 176.3 25.6C184 25.6 189.9 31.5 189.9 39.6C189.9 47.7 184 53.6 176.3 53.6C172 53.6 168.6 52.1 166.3 49V53H159.5V8.8H166.3V30.2ZM174.6 47.6C179.6 47.6 183 44.2 183 39.6C183 35 179.6 31.6 174.6 31.6C169.7 31.6 166.2 35 166.2 39.6C166.2 44.2 169.7 47.6 174.6 47.6Z" fill="#135D38"/>
  <path d="M206.2 25.6C213.9 25.6 219.7 31.5 219.7 39.6C219.7 47.7 213.9 53.6 206.2 53.6C198.5 53.6 192.7 47.7 192.7 39.6C192.7 31.5 198.5 25.6 206.2 25.6ZM206.2 47.6C210.3 47.6 212.9 44.4 212.9 39.6C212.9 34.8 210.3 31.6 206.2 31.6C202.1 31.6 199.5 34.8 199.5 39.6C199.5 44.4 202.1 47.6 206.2 47.6Z" fill="#135D38"/>
  <circle cx="228.4" cy="28.8" r="3.5" fill="#D7A928"/>
</svg>
